<?xml version="1.0" encoding="utf-8"?>
<!-- Generator: Adobe Illustrator 19.1.0, SVG Export Plug-In . SVG Version: 6.00 Build 0)  -->
<svg version="1.1" xmlns="http://www.w3.org/2000/svg" xmlns:xlink="http://www.w3.org/1999/xlink" x="0px" y="0px"
	 viewBox="0 0 960 960" style="enable-background:new 0 0 960 960;" xml:space="preserve">
<style type="text/css">
	.st0{display:none;}
	.st1{display:inline;fill:#28A745;}
	.st2{display:inline;}
	.st3{fill:none;}
	.st4{fill:#28A745;}
	.st5{display:inline;fill:#030303;}
	.st6{display:inline;fill:#FEFEFE;}
	.st7{font-family:'ADAM.CGPRO';}
	.st8{font-size:125.954px;}
	.st9{fill:#FFFFFF;}
</style>
<g id="Layer_2" class="st0">
	<rect x="353.6" y="174.6" class="st1" width="63.4" height="94.2"/>
	<rect x="696.8" y="387" class="st1" width="74.5" height="92.6"/>
	<polygon class="st1" points="728.2,141 719.1,184.7 737.2,195 759,195 771.3,163.3 	"/>
</g>
<g id="Layer_1" class="st0">
	<g class="st2">
		<path class="st3" d="M747,310c-13,0-26,0-38,0c0,13,0,25,0,37c15,0,25,0,38,0C747,335,747,323,747,310z"/>
		<path class="st3" d="M747,552c0-13,0-25,0-36c-13,0-25.7,0-37.5,0c-0.1,1,1.5,2-0.5,3.5c0,11.1,0,22.5,0,32.5
			C724,552,734,552,747,552z"/>
		<path class="st3" d="M401,310c-13,0-24,0-37,0c0,13,0,25,0,37c13,0,24,0,37,0C401,335,401,323,401,310z"/>
		<path class="st3" d="M364,414.4c0-0.7-0.1-1.4,0.3-2.4c-0.4,0-0.3,0-0.3,0C364,413,364,413.7,364,414.4z"/>
		<path class="st3" d="M331.8,609.6c-5.3,10.9-10.4,21.4-15.8,34.4c30.1,0,59,0,88.8,0c-1.8-3-3-3.7-4.2-5
			c-8.4-9.5-17.4-19.2-25.1-29.2c0,0-0.1-0.8-0.1-0.8c-12.4,0-24.8,0-37.3,0C335.7,609,333.6,609.8,331.8,609.6z"/>
		<path class="st3" d="M401,208c-13,0-24,0-37,0c0,13,0,26,0,37c13,0,24,0,37,0C401,234,401,221,401,208z"/>
		<path class="st3" d="M709,450c12,0,25,0,38,0c0-13,0-26,0-38c-13,0-26,0-38,0C709,426,709,437,709,450z"/>
		<path class="st3" d="M747.1,163.4c-5.8,0.4-10.2,5.3-9.9,11.1c0.2,6.1,5.4,10.7,11.5,10.3c5.7-0.4,10.3-5.5,10-11
			C758.4,167.7,753,162.9,747.1,163.4z"/>
		<path class="st3" d="M848.5,231.8c-20.2,0.1-36.8,16.7-36.8,37.1c0,20.4,16.3,36.8,36.8,36.9c20.5,0.1,37.1-16.1,37.4-36.5
			C886.1,248.9,869,231.7,848.5,231.8z"/>
		<path class="st3" d="M849,117.6c20.4-0.1,37-16.8,36.8-37c-0.1-20.2-16.9-36.9-37.1-37c-20.5-0.1-37.4,17-37.1,37.6
			C812,101.6,828.4,117.7,849,117.6z"/>
		<path d="M707,472.4c2.4,14.8,3.2,29.6,2.5,43.6c11.8,0,24.5,0,37.5,0c0,11,0,23,0,36c-13,0-23,0-38,0c0-10,0-21.4,0-32.5
			c-2,33-13.8,63.3-33.8,90.5c30.9,0,61.8,0,92.7,0c13.3,0,15.5-2.1,15.5-15.4c0-81.6,0-163.1,0.1-244.7c0-5.6-1.4-9.6-5.4-13.8
			c-22.2-23.5-30.7-51.6-25.9-83.6c0.4-2.6,0.3-5.3,0.5-8c-0.6-0.3-1.2-0.6-1.8-0.9c-2,1.8-4,3.6-6,5.4
			c-22.8,21.1-45.7,42.1-68.3,63.4c-1.9,1.8-3.1,5.2-3.2,7.9c-0.3,11.4-0.1,21.5-0.1,34.5c-12.3,0-24.5,0-36.7,0
			C673.6,384,699.4,424.3,707,472.4z M747,450c-13,0-26,0-38,0c0-13,0-24,0-38c12,0,25,0,38,0C747,424,747,437,747,450z M709,310
			c12,0,25,0,38,0c0,13,0,25,0,37c-13,0-23,0-38,0C709,335,709,323,709,310z"/>
		<path d="M343,598.1c-2.7,0.7-6.4,1.8-7.4,3.8c-1.3,2.5-2.5,4.7-3.8,7.3c1.8,0.2,3.9-0.1,6.4-0.1c12.4,0,24.8,0,37.3,0
			C363,593,363.3,593,343,598.1z"/>
		<path d="M333.7,474.2c8.8-2.4,11.7-6.1,13.5-15.9c2.9-15.7,8.8-30.2,16.8-43.9c0-0.7,0-1.4,0-2.4c0,0-0.1,0,0.3,0
			c2.5-5,5.4-8.6,8.3-12.9c17.1-25.2,40.5-45,65.5-58.8c0-47.6,0-95.3,0-143.3c5,0,6.4,0,9.5,0c66.1,0,132.3,0.3,198.4,0.2
			c3,0,6.7,0,8.7-1.8c7.4-6.4,14.3-13.5,21.8-20.8c-7.5-7.3-13.8-14-20.7-19.9c-3.1-2.6-7.6-4.8-11.4-4.8
			c-102.7-0.3-205.5-0.2-308.2-0.2c-10.8,0-13.2,2.6-13.2,13.5c0,103.8,0,207.6,0,311.4C325.6,476,328.6,475.6,333.7,474.2z
			 M364,208c13,0,24,0,37,0c0,13,0,26,0,37c-13,0-24,0-37,0C364,234,364,221,364,208z M364,310c13,0,24,0,37,0c0,13,0,25,0,37
			c-13,0-24,0-37,0C364,335,364,323,364,310z"/>
		<path d="M865.4,197.1c-19.5-4.3-37.8-1.2-54.1,8.2c-10.9-10.7-21.3-20.8-32-31.4c9.2-9.2,18.5-18.8,28.2-27.9
			c1.3-1.2,5.2-0.9,7.3,0.1c14.5,7.1,29.5,9.6,45.6,7.3c38.7-5.6,67.7-44.6,61.3-83.1c-6.9-41.9-45.8-70.1-85.9-62.2
			c-45.4,9-70.9,52.8-56.6,97c0.7,2.1,0.9,5.6-0.4,6.9c-8.9,9.5-18.3,18.6-28.4,28.7c-6.4-6.7-12.1-13.1-18.2-19
			c-21.7-20.8-42.9-42.1-65.6-61.7c-17.7-15.3-38.5-26.2-62.1-29.8c-11.5-1.8-23.1-2-36.1,4.8c47.6,47.4,94.2,93.8,142.4,141.8
			c-46.5,46.5-93,93-140.7,140.7c9.4,1,18.1,2.9,26.8,2.6c20.4-0.7,38.9-8.5,55.1-20.3c16.4-12,32-25.2,46.9-39
			c17.8-16.5,34.4-34.2,52-51.8c8.9,8.9,17.2,17.6,25.9,25.8c3.7,3.4,3.8,6.3,2.3,10.8c-17.3,52.1,25.2,103.2,79.8,96.2
			c34.4-4.4,61.9-34,63.5-68.3C923.9,236.9,900,204.8,865.4,197.1z M848.7,43.6c20.2,0.1,37,16.8,37.1,37
			c0.1,20.3-16.5,36.9-36.8,37c-20.5,0.1-37-15.9-37.3-36.4C811.3,60.6,828.2,43.5,848.7,43.6z M748.6,184.7
			c-6.1,0.4-11.2-4.2-11.5-10.3c-0.2-5.7,4.2-10.6,9.9-11.1c5.9-0.5,11.3,4.3,11.6,10.3C758.9,179.3,754.3,184.3,748.6,184.7z
			 M848.5,305.7c-20.5-0.1-36.9-16.5-36.8-36.9c0-20.3,16.6-37,36.8-37.1c20.5-0.1,37.6,17.1,37.3,37.5
			C885.6,289.6,869,305.8,848.5,305.7z"/>
		<path d="M522.7,405.3c51.8,0,93.7,41.9,93.6,93.4c0,24.4-9.6,47.3-25.2,63.3c27.1,0,54.8,0,81.8,0c0-53,0-104,0-158
			c-79,0-156,0-235,0c0,19,0,36.9,0,55.1C453,427.2,485,405.3,522.7,405.3z"/>
		<path d="M364,450c13,0,24,0,37,0c0-13,0-26,0-38c-13,0-24.6,0-36.7,0c-0.4,1-0.3,1.7-0.3,2.4C364,426.7,364,438,364,450z"/>
		<path d="M709,516c0,1,0,1.9,0,3.5c2-1.6,0.4-2.5,0.5-3.5C709.4,516,711,516,709,516z"/>
		<path d="M651.5,637.2c8.9-8.7,16.8-17.7,23.7-27.1c-99.9,0-199.9,0-299.8,0c0,0,0.1,0.1,0.1,0.1c7.7,10,16.7,19.3,25.1,28.8
			c1.2,1.3,2.4,2,4.2,5c-29.9,0-58.8,0-88.8,0c5.4-13,10.4-23,15.8-33.9c-7.7-0.8-8.9-4.2-8.9-15.3c0-40,0-80,0-119.9
			c-2.4-1.1-4.6-3.6-7.7-7.9c-39.9-54.7-93.7-75-159.3-61.6C90.6,418.7,41.3,477,37.8,541.4c-4,73.1,36.4,134.7,103,157.2
			c13.7,4.6,13.8,4.9,11.9,19.1c-17,3.1-32.8-0.3-48.2-7.7c-13.6-6.6-28.5-7-44.4-6.6c1.8,4.3,3.2,7.8,4.8,11.2
			c10.3,21.7,20.7,43.3,31.1,65c4.5,9.3,8.5,10.8,17.4,5.2c3.1-1.9,5.1-5.5,7.7-8.2c1.9-2,4.4-5.1,6.5-5.3
			c8.5-0.6,16.4-0.3,26.4-0.3c0,63.6,0,126.4,0,189.9c177,0,355,0,530,0c0-104.8,0-211,0-317c-12,0-25.7,0-37.9,0
			C647.6,641,649.6,639,651.5,637.2z M188.7,622.6c-40.8-1.2-74.2-34.2-74.2-75.6c0-41.6,34-75.2,76-75.2c42.1,0,75,33.3,75.4,75.6
			C266.2,589.3,230.2,623.8,188.7,622.6z M646.8,913.6c0,8.9-7.5,16.7-16.2,17c-8.9,0.3-17.2-7.7-17.3-16.7c-0.1-9,8-17.1,17-16.9
			C639.3,897,646.8,904.6,646.8,913.6z"/>
		<path d="M438,562c6,0,10.7,0,16.1,0c-6.6-7-11.1-15.4-16.1-24.3C438,545.7,438,553,438,562z"/>
		<path d="M636.6,355c-20.9-15-45.4-26.8-72.4-32.7c-43.7-9.5-88.2-2.4-126.2,18c0,5,0,9.7,0,14.7C505,355,570,355,636.6,355z"/>
		<path d="M401,516c-14,0-24,0-37,0c0,11,0,23,0,36c13,0,24,0,37,0C401,539,401,526,401,516z"/>
		<path d="M331.8,609.8c1.2-2.6,2.5-5.1,3.8-7.6c1-1.9,4.7-2.9,7.4-3.5c20.3-5.1,20.1-4.8,32.5,11.4c99.9,0,199.8,0,299.7,0
			c20-27.3,31.8-57.5,33.8-90.5c0-1.6,0-2.5,0-3.5c2,0,0.4,0,0.5,0c0.7-14-0.1-28.8-2.5-43.6c-7.7-48.1-33.4-88.4-70.4-117.4
			c-66.5,0-131.6,0-198.6,0c0-5,0-9.7,0-14.7c-25,13.8-48.3,33.6-65.5,58.8c-2.9,4.3-5.7,7.9-8.3,12.9c12.1,0,23.7,0,36.7,0
			c0,12,0,25,0,38c-13,0-24,0-37,0c0-12,0-23.3,0-35.6c-8,13.7-13.9,28.2-16.8,43.9c-1.8,9.7-4.4,13.5-13.2,15.9
			c-5.1,1.4-8.3,1.8-10.9,0.6c0,40-0.1,79.9-0.1,119.9C323,605.7,324.1,609,331.8,609.8z M438,459.1c0-18.2,0-36.1,0-55.1
			c79,0,156,0,235,0c0,54,0,105,0,158c-27,0-54.7,0-81.8,0c-17.2,17-41.7,29.9-68.9,29.9c-26.9,0-51.1-12.9-68.2-29.9
			c-5.4,0-10.1,0-16.1,0c0-9,0-16.3,0-24.3c-6-11.9-8.6-25.1-8.7-39.1C429.3,484.4,432,471.1,438,459.1z M364,516c13,0,23,0,37,0
			c0,10,0,23,0,36c-13,0-24,0-37,0C364,539,364,527,364,516z"/>
		<path d="M773.3,674.4c-7.6,4.7-15.5,7.1-24.5,7c-16.8-0.3-33.7-0.1-50.5-0.1c-9.6,0-9.8,0.1-9.8,9.6c0,41.6,0,83.2,0,124.9
			c0,2.3,0.2,4.6,0.4,7.5c21.4,0,42-0.4,62.7,0.2c6.2,0.2,12.9,2,18.3,5.1c25.8,15,50.9,30.6,76.4,46c2.3,1.4,5.7,2.5,7.7,4.1
			c0-84.9,0-168.5,0-253.3c-2,1.9-5.5,3-7.7,4.4C821.9,644.6,797.6,659.3,773.3,674.4z"/>
		<path class="st4" d="M554.9,544.3c8.4-0.1,15.1-6.9,15-15.2c-0.1-8.3-6.9-15.1-15.2-15.1c-8.3,0-14.9,6.8-14.9,15.2
			C540,537.7,546.7,544.5,554.9,544.3z"/>
		<path class="st4" d="M499.3,523.2c-8-0.1-15.4,6.9-15.5,14.8c-0.2,8.3,7.1,15.6,15.5,15.5c8.2-0.1,15-6.9,14.9-15.1
			C514.2,530,507.6,523.3,499.3,523.2z"/>
		<path class="st4" d="M513.7,463c8.4,0,14.9-6.6,15-15.1c0-8.8-6.1-14.9-14.9-14.9c-8.7,0-15.1,6.2-15.1,14.8
			C498.6,456.2,505.4,463,513.7,463z"/>
		<path class="st4" d="M560,491.1c8.9,0.1,15.1-5.8,15.2-14.5c0.1-8.6-6.2-15.3-14.5-15.5c-8.5-0.1-15.1,6.3-15.3,14.8
			C545.3,484.5,551.4,491,560,491.1z"/>
		<path class="st4" d="M478.2,503.2c8.4,0,14.7-6.6,14.7-15.3c0-8.8-6.1-14.9-14.9-14.8c-8.6,0.1-14.9,6.5-14.8,15.1
			C463.2,496.7,469.9,503.3,478.2,503.2z"/>
		<path class="st4" d="M166.4,538.9c0.1-7.3-4.7-12.1-12.1-12c-6.8,0.1-11.9,4.9-12.1,11.5c-0.2,6.6,5.4,12.5,12,12.7
			C160.9,551.3,166.3,545.9,166.4,538.9z"/>
		<path class="st4" d="M182.7,493.9c-6.4,0.2-11.7,5.7-11.7,12.3c-0.1,6.8,5.5,12.3,12.3,12.2c7-0.1,12.2-5.5,12.1-12.4
			C195.2,499.2,189.4,493.6,182.7,493.9z"/>
		<path class="st4" d="M172,567.4c-7.2-0.3-13.1,5.3-13,12.3c0.1,6.4,5.4,11.7,12,11.9c6.9,0.2,12.4-5,12.5-11.9
			C183.6,573,178.6,567.7,172,567.4z"/>
		<path class="st4" d="M220.8,516.9c-6.8,0.1-12.2,5.6-12,12.5c0.1,6.5,5.5,11.9,12,12c6.8,0.1,12.4-5.4,12.3-12.3
			C233,522.2,227.6,516.9,220.8,516.9z"/>
		<path class="st4" d="M216.5,560.1c-7-0.1-12.4,5.3-12.3,12.1c0.1,6.4,5.5,11.9,11.8,12.1c6.9,0.2,12.3-5,12.4-12
			C228.5,565.1,223.8,560.2,216.5,560.1z"/>
	</g>
</g>
<g id="Layer_3" class="st0">
	<path class="st5" d="M22.3,420.8c9.8-12,21.5-22.2,32.2-33.4c1.8-1.9,4.5-3,2.1-7.2c-7.1-12.5-4.9-18.9,8-25.9
		c22.5-12.2,45.1-24.3,67.7-36.5c22.6-12.2,45.1-24.5,67.7-36.5c45.7-24.3,91.8-17.6,128.7,18.9c23.6,23.3,47,46.9,70.4,70.4
		c3.6,3.7,6.7,5.2,12.4,4.2c40-6.7,74.2-25.6,106.1-49.3c44.3-33,81.8-72.4,110.7-119.6c11-18,18-37.5,22.2-58.2
		c7-34.4,20.4-65.4,47.6-89.1c21.3-18.5,45.8-29.9,73.6-34.5c1.6-0.3,3.7,0.6,4.4-1.9c12,0,23.9,0,35.9,0c4.4,3.5,10,2.2,15,3.6
		c57.6,15.2,95.8,50.9,109.8,108.8c13.7,56.7-2.9,105.7-46.4,144.9c-18.4,16.6-40.8,26.6-64.7,31.1c-40.9,7.6-75.8,26.4-107.4,52.3
		c-45.5,37.3-84.7,80-111,133.3c-8.6,17.5-15,35.6-18.4,54.9c-1.1,6.4,0.7,9.8,4.8,13.9c23.2,22.9,46.1,46.1,69.3,69.1
		c19.8,19.7,32,42.9,33.5,71.2c1.1,20.2-3.9,39.1-13.4,56.7c-24.5,45.7-49.1,91.4-73.8,137.1c-6.9,12.8-13.4,14.9-26,7.7
		c-3.6-2.1-4.7-0.1-6.5,1.7c-8.3,8.2-16.5,16.5-24.7,24.8c-10.9,10.8-18,10.8-28.9-0.2c-52.5-52.4-104.9-104.9-157.4-157.4
		c-108.5-108.5-217-217-325.5-325.6c-6.1-6.1-11.9-12.4-17.9-18.6C22.3,427.9,22.3,424.4,22.3,420.8z M252.4,297.3
		c-12.8,0.2-26,4.3-38.6,11.1c-37,20.1-74,40-111.1,60c-9.9,5.4-9.9,5.4-2.1,13.1C261.1,542,421.6,702.5,582,862.9
		c1.1,1.1,2.2,2,3.2,3.2c3.5,4.4,5.4,3.6,8-1.2c21-39.5,42.6-78.7,63.5-118.3c16.7-31.6,12-63.2-13.4-88.7
		c-112.3-112.6-224.9-225-337.4-337.5C291.5,306,274.3,298.1,252.4,297.3z M561.9,530.5c3.6-13.3,8.3-26.7,14.2-39.7
		c24.2-52.8,60.5-96.2,103.4-134.9c41.1-37,86.5-64.5,141.7-75.9c60.3-12.4,97-68.2,87.8-128.5C897.4,74.9,816.2,31.3,746,63.7
		c-37,17.1-56.3,47.5-64.6,86.1c-3.7,17.2-7.6,34.4-15.4,50.3c-28.4,57.9-71.4,103.5-121.1,143.2c-33.5,26.8-70.6,47.4-111.8,58.4
		C476,444.7,518.8,487.4,561.9,530.5z M558.9,882.1c-2.4-1.9-4.7-3.5-6.6-5.4C399.7,724.1,247,571.4,94.3,418.8
		c-4.4-4.4-9.3-12.5-13.4-12.2c-5,0.4-9.3,8.2-14.3,12.2c-6.2,4.9-6.2,8.2-0.3,14.1c129.8,129.4,259.4,259.1,389,388.7
		c25.8,25.8,51.7,51.5,77.3,77.5c3.6,3.6,5.8,5,9.6,0.3c3.9-4.8,8.7-9,13.2-13.5C556.4,885,557.3,883.9,558.9,882.1z"/>
	<path class="st1" d="M252.4,297.3c21.9,0.9,39.1,8.7,53.5,23.1c112.5,112.5,225,224.9,337.4,337.5c25.5,25.6,30.1,57.1,13.4,88.7
		c-20.8,39.6-42.4,78.8-63.5,118.3c-2.6,4.8-4.5,5.7-8,1.2c-0.9-1.2-2.1-2.1-3.2-3.2C421.6,702.5,261.1,542,100.6,381.5
		c-7.8-7.8-7.8-7.8,2.1-13.1c37-20,74.1-39.9,111.1-60C226.4,301.6,239.6,297.5,252.4,297.3z"/>
	<path class="st6" d="M561.9,530.5c-43.1-43-85.9-85.8-128.9-128.7c41.2-11,78.3-31.6,111.8-58.4c49.7-39.7,92.8-85.4,121.1-143.2
		c7.8-15.9,11.7-33.1,15.4-50.3c8.4-38.5,27.6-68.9,64.6-86.1c70.2-32.5,151.4,11.2,163.1,87.7c9.2,60.3-27.5,116.1-87.8,128.5
		c-55.3,11.4-100.6,38.9-141.7,75.9c-42.9,38.6-79.2,82.1-103.4,134.9C570.2,503.7,565.5,517.2,561.9,530.5z"/>
	<path class="st6" d="M558.9,882.1c-1.6,1.9-2.5,2.9-3.5,3.9c-4.4,4.5-9.2,8.6-13.2,13.5c-3.8,4.7-6.1,3.3-9.6-0.3
		c-25.7-25.9-51.5-51.7-77.3-77.5C325.7,692,196.2,562.4,66.4,433c-5.9-5.9-6-9.2,0.3-14.1c5.1-4,9.3-11.8,14.3-12.2
		c4.1-0.3,8.9,7.7,13.4,12.2c152.7,152.6,305.3,305.3,458,457.9C554.3,878.6,556.6,880.1,558.9,882.1z"/>
</g>
<g id="Layer_4">
	<g>
		<path d="M174.9,854.6c0-24.4-0.8-45.7,0.3-66.9c0.7-13.1-4.6-16.4-16.4-16.7c-21.2-0.6-42.4-2.3-65.8-3.8
			c5.5-22.8,10-44.1,16-64.9c3.2-11.1,1.4-16.3-10.4-19.5c-21-5.7-41.5-13.1-64.4-20.6c13.1-24.5,25.4-47.7,38.6-72.3
			c-23-14.6-45.3-28.8-69.1-43.9c18.7-20.6,36.5-40.1,55.2-60.6c-18.8-20-36.8-39.2-56-59.7c23.2-15.2,45-29.4,68.7-44.9
			c-13-23.6-25.7-46.6-39.5-71.6c26.4-9,51.2-17.5,77.6-26.6c-6.6-26.2-12.9-51.3-19.9-79c21.8-1.7,42.2-4.5,62.6-4.6
			c15.1-0.1,20.4-4.9,19.4-20.3c-1.3-20.6-0.3-41.4-0.3-63.5c23.8,4.3,45.8,8,67.7,12.4c9.8,2,14.4-0.3,16.7-10.7
			c4.7-21.7,10.9-43.2,16.9-66.6c25.4,11.5,49.4,22.3,74.6,33.7c13.4-24.1,26.2-47.2,39.8-71.7c21.5,17.4,42.1,34.1,63.8,51.6
			c18.6-19.9,36.4-38.9,56.2-60c16.4,22,32.1,43.1,49.1,66c22.9-14.5,45.1-28.7,69.3-44.1c10.5,25.6,20.5,50,31.1,75.8
			c25.8-8.3,50.5-16.2,77.8-25c3,21,7.1,41.1,8.5,61.4c1,16,6.7,21,22.6,18.9c19.8-2.6,40-2.8,62.4-4.2c-2.6,22.3-4.2,42.4-7.5,62.2
			c-2.4,14.3,0.5,21.2,16.5,23c20.5,2.2,40.6,7.4,62.4,11.7c-9.9,26-19.2,50.2-29.2,76.4c24.6,11.6,48.4,22.8,74.1,34.9
			c-16.1,22.9-31.3,44.4-47.1,67c21.1,17.6,41.4,34.5,62.8,52.4c-21.1,17.9-40.8,34.7-62.4,53.1c15.9,21.8,31.4,43.1,48.3,66.2
			c-24.8,12-48.5,23.5-73.8,35.7c9.9,25.4,19.5,49.9,29.7,76.2c-27.4,5.7-53.1,11.1-79.9,16.7c3.2,27.2,6.2,52.9,9.5,80.9
			c-27.6-1.3-53.5-2.5-81.3-3.8c-3.6,27.1-7.2,53.2-10.9,80.9c-26.3-8.1-51.6-15.8-78.1-23.9c-10.2,25.7-20,50.2-30.3,76
			c-23.7-14.6-45.9-28.2-69.8-43c-15.9,21.8-31.4,43.1-47.1,64.6c-19.5-19.3-38.2-37.8-58.1-57.6c-21.3,17.6-41.6,34.4-63.1,52.3
			c-13.9-24.3-27-47.2-40.8-71.2c-24.7,11.6-48.3,22.7-74.1,34.8c-5.9-21.8-12.2-42.5-16.7-63.5c-2.8-12.9-8.3-16.1-20.9-13.1
			C219.5,846.7,198.5,850.1,174.9,854.6z"/>
		<rect x="157.1" y="433.8" class="st3" width="657.5" height="96.6"/>
		<text transform="matrix(1 0 0 1 167.5215 527.2451)"><tspan x="0" y="0" class="st4 st7 st8">BRAND</tspan><tspan x="420.3" y="0" class="st9 st7 st8">ING</tspan></text>
	</g>
</g>
</svg>
