<?xml version="1.0" encoding="utf-8"?>
<!-- Generator: Adobe Illustrator 19.1.0, SVG Export Plug-In . SVG Version: 6.00 Build 0)  -->
<svg version="1.1" xmlns="http://www.w3.org/2000/svg" xmlns:xlink="http://www.w3.org/1999/xlink" x="0px" y="0px"
	 viewBox="0 0 960 960" style="enable-background:new 0 0 960 960;" xml:space="preserve">
<style type="text/css">
	.st0{display:none;}
	.st1{fill:#27A74A;}
	.st2{fill:#006837;}
	.st3{fill:#FFFFFF;}
</style>
<g id="Layer_2" class="st0">
</g>
<g id="Layer_1">
	<g>
		<path class="st1" d="M616.6,799.7c-4.6-1.1-9.3-2.1-13.9-3.3c-35.4-9.6-59.6-31.8-70.9-66.4c-11.4-34.9-4.7-67.6,18.8-95.8
			c27.8-33.4,72.8-44.3,113.5-28.9c48.8,18.5,75.8,74.8,59,124.4c-13,38.4-40.2,61.1-79.9,68.7c-1.9,0.4-3.8,0.9-5.7,1.4
			C630.5,799.7,623.6,799.7,616.6,799.7z M617.8,716.3c-9.4-7.5-18.1-14.6-27.1-21.4c-7.8-5.8-16.7-4.7-22,2.3
			c-5.6,7.4-4.4,16,3.4,22.3c11.7,9.4,23.5,18.8,35.2,28.2c9.7,7.8,18.2,7,26.3-2.2c19-21.5,38.1-42.9,57.1-64.4
			c2-2.2,3.9-4.7,5.2-7.3c3.1-6.8,0.3-14.7-6.2-18.8c-6.6-4.2-14.5-3-20.3,3.5c-9.8,10.8-19.4,21.8-29.1,32.7
			C632.9,699.4,625.5,707.6,617.8,716.3z"/>
		<path d="M466.6,257.4c3.8,2,7.9,3.6,11.3,6.2c6.6,5,9.3,12.3,10.1,20.4c0.9,8.5,4.5,11.8,13.2,12.1c3.9,0.1,7.8-0.1,11.7,0.2
			c12.2,1,21.2,10.7,21.3,22.8c0.1,12.3-8.9,22.2-21.2,23.3c-1.3,0.1-2.7,0.2-4.1,0.2c-32.4,0-64.7,0.1-97.1-0.1
			c-17.7-0.1-28.9-15.2-23.1-31.2c3.2-9.1,10.1-14,19.6-15c4.3-0.5,8.7-0.1,13.1-0.4c7.6-0.5,11.6-3.9,12.1-11.4
			c1-13.6,7.8-22.4,20.7-26.5c0.2-0.1,0.4-0.4,0.6-0.7C458.8,257.4,462.7,257.4,466.6,257.4z M472.4,285.2c0.4-6-4.8-11.9-10.8-12.3
			c-6.1-0.3-11.6,4.6-12.1,10.9c-0.5,6.3,4.3,11.7,10.8,12C466.6,296.3,471.9,291.6,472.4,285.2z"/>
		<path d="M512.2,745.4c-2.2,0-3.6,0-5.1,0c-62.4,0-124.7,0-187.1,0c-8.9,0-17-2-23.6-8.4c-5.8-5.6-9.1-12.3-9.6-20.3
			c-0.2-2.5-0.2-5.1-0.2-7.7c0-120.9,0-241.9-0.1-362.8c0-11.2,3-21.1,11.4-28.8c3.9-3.6,8.4-5.7,13.8-5.6c18.7,0.1,37.4,0.1,56-0.1
			c3.8,0,4.5,1.3,4.2,4.8c-1.7,21.3,13.4,39.3,34.7,41.2c5.8,0.5,11.7,0.4,17.6,0.4c28,0,56,0,84,0c13.6,0,25.1-4.3,33.5-15.4
			c5.7-7.5,8.3-15.9,7.9-25.3c-0.1-1.6,0-3.3,0-5.3c1.4-0.1,2.7-0.3,4-0.3c14,0,28-0.1,42,0.1c4.3,0.1,8.7,0.5,13,1.4
			c17.7,3.9,26.5,14.8,26.5,32.9c0.1,40.1,0,80.1,0,120.2c0,34.5,0,69,0,103.5c0,5.7,0,5.1-5.8,5.4c-9.3,0.5-18.5,1.8-27.8,2.7
			c-1.5,0.2-2.9,0.5-5.1,0.9c0-2.4,0-4.3,0-6.2c0-56.6,0-113.3,0-169.9c0-6.1,0-6.1-6.2-6.1c-86.6,0-173.2,0-259.8-0.1
			c-4.6,0-5.4,1.6-5.4,5.7c0.1,99.7,0.1,199.4,0,299.1c0,4.5,1.5,5.5,5.7,5.4c55.6-0.1,111.1,0,166.7-0.2c4.8,0,6.1,1.4,6.9,6.1
			c1.5,9.3,4.1,18.4,6.3,27.7C511.1,741.8,511.6,743.2,512.2,745.4z"/>
		<path d="M495.6,528.6c-19.9,0-39.7,0-59.6,0c-7.1,0-9.9-2.7-10-9.7c0-1.7-0.1-3.3,0-5c0.3-5.4,3.1-8.3,8.5-8.5
			c3.6-0.2,7.2-0.1,10.8-0.1c36.1,0,72.2,0,108.4,0c4,0,9.1-0.3,10.1,4c1.2,5,0.9,10.7-0.3,15.7c-0.4,1.7-5.2,3.4-7.9,3.5
			C535.6,528.7,515.6,528.6,495.6,528.6z"/>
		<path d="M495.3,458.8c-19.4,0-38.8,0-58.3,0c-3.8,0-8.7,0.2-9.7-4c-1.1-5-0.7-10.6,0.4-15.7c0.4-1.7,5.2-3.2,8.1-3.3
			c15.1-0.3,30.1-0.2,45.2-0.2c24.2,0,48.5,0,72.7,0c3.9,0,9.1-0.5,10.1,4c1.2,5,0.8,10.7-0.4,15.7c-0.4,1.7-5.5,3.2-8.5,3.2
			C535.1,458.9,515.2,458.8,495.3,458.8z"/>
		<path d="M476.1,590.5c-13.1,0-26.2,0-39.3,0c-4,0-8.9-0.1-9.7-4.7c-0.9-4.9-0.3-10.3,0.8-15.2c0.4-1.6,4.4-3.2,6.8-3.2
			c27.7-0.2,55.4-0.2,83.1-0.1c5.7,0,8.4,3.1,8.6,8.8c0,0.8,0,1.5,0,2.3c0,10.4-1.7,12.2-12,12.2
			C501.7,590.5,488.9,590.5,476.1,590.5z"/>
		<path d="M468.9,637.1c10.7,0,21.3,0,32,0c7.7,0,10.2,2.6,10.3,10.4c0.1,10.6-2,12.7-12.5,12.8c-20.4,0-40.9,0-61.3,0
			c-4,0-9,0-10-4.2c-1.1-5-0.6-10.6,0.6-15.6c0.4-1.7,5.2-3.1,8.1-3.2C446.9,636.9,457.9,637.1,468.9,637.1z"/>
		<path class="st2" d="M413.6,559.8c-1.4,2.6-2.2,4.8-3.6,6.4c-8.5,9.7-17.1,19.4-25.7,29c-4.8,5.3-7.4,5.6-13.1,1.3
			c-4.9-3.7-9.7-7.6-14.5-11.5c-4.5-3.6-5.4-7.8-2.6-11.3c2.8-3.5,7-3.4,11.5,0.2c2.6,2.1,5.3,4,7.7,6.2c2.4,2.2,3.9,1.7,5.9-0.6
			c6.4-7.4,12.9-14.7,19.4-22c3.9-4.4,7.1-5.5,10.5-3.2C410.8,555.6,412,557.8,413.6,559.8z"/>
		<path class="st2" d="M376.4,447.8c6.7-7.5,13-14.6,19.3-21.7c1.6-1.8,3.1-3.7,4.9-5.3c3.1-2.9,6.9-3.1,9.7-0.6
			c2.8,2.5,3.3,6.5,0.7,9.8c-2.9,3.7-6,7.1-9.1,10.6c-6,6.8-12,13.5-18,20.2c-4,4.4-7.4,4.9-12.2,1.3c-5.5-4.2-10.9-8.5-16.2-13
			c-3.4-2.9-3.9-7-1.6-10c2.4-3.1,6.7-3.7,10.5-0.9C368.4,441.1,372.1,444.3,376.4,447.8z"/>
		<path class="st2" d="M376.5,516.6c7-7.9,13.7-15.4,20.4-22.9c1.1-1.2,2.2-2.5,3.4-3.6c3.5-3.2,7.5-3.3,10.5-0.5
			c2.8,2.7,2.6,6.9-0.5,10.5c-5,5.7-10,11.3-15,16.9c-3.9,4.4-7.8,8.8-11.7,13.1c-4,4.3-7.3,4.5-11.8,1c-5.2-4.1-10.4-8.2-15.6-12.3
			c-3.9-3.1-4.7-7.3-2.2-10.7c2.6-3.5,6.4-3.8,10.7-0.7C368.4,510.2,372.2,513.2,376.5,516.6z"/>
		<path class="st2" d="M413.5,626.2c-1.4,2.6-2,4.6-3.3,6.2c-8.7,10-17.5,19.9-26.4,29.7c-4.1,4.5-7.5,4.8-12.2,1.2
			c-5.2-4-10.4-8.1-15.6-12.3c-4-3.3-4.7-7.8-1.9-11.1c2.6-3.1,7-3,10.9,0c2.8,2.2,5.7,4.4,8.4,6.8c2.2,1.9,3.6,1.7,5.6-0.6
			c6.1-7.2,12.5-14.3,18.8-21.3c1.3-1.4,2.6-3.3,4.3-3.9c2.1-0.7,4.9-1.1,6.7-0.2C410.8,621.7,412,624.3,413.5,626.2z"/>
		<path class="st3" d="M617.8,716.3c7.7-8.7,15.1-17,22.5-25.3c9.7-10.9,19.3-21.9,29.1-32.7c5.8-6.5,13.7-7.7,20.3-3.5
			c6.5,4.2,9.3,12.1,6.2,18.8c-1.2,2.7-3.2,5.1-5.2,7.3c-19,21.5-38.1,42.9-57.1,64.4c-8.1,9.2-16.6,10-26.3,2.2
			c-11.7-9.4-23.5-18.7-35.2-28.2c-7.7-6.2-9-14.9-3.4-22.3c5.3-7,14.2-8.2,22-2.3C599.7,701.7,608.4,708.9,617.8,716.3z"/>
	</g>
	<g>
		<path d="M63.4,671.5C-18.3,463,88.2,199.4,318.6,115.7c7.6,34.4,6.7,36.5-23.4,52C131,252.2,44,437.5,87.7,616.5
			C94.8,646,82.7,657.8,63.4,671.5z"/>
		<path d="M897.4,671.7c-21.4-14.4-31.3-27.5-24.5-56.2c42.8-178.3-43.6-362.7-206.5-447.2c-30.6-15.9-30.6-15.9-26.1-52
			C848.5,185.4,983.9,438.3,897.4,671.7z"/>
		<path d="M264.8,898.9c-72.3,0-141.8,0-213.8,0c0-19.2-1.4-37.7,0.3-55.9c2.3-23.8,21.7-41.5,46.1-42.1c39.8-0.9,79.6-1,119.3,0
			c26.6,0.6,45.7,20.7,47.8,48.9C265.8,865.1,264.8,880.5,264.8,898.9z"/>
		<path d="M592.3,230.3c-71.9,0-140.7,0-211.4,0c0-19.2-2-37.9,0.5-55.9c3.5-26,22.4-41.2,49-41.7c36.5-0.6,73.1-0.6,109.7-0.1
			c32.2,0.4,51.2,19.4,52.2,51.5C592.7,198.6,592.3,213.2,592.3,230.3z"/>
		<path d="M705.5,897.2c-0.4-4.5-0.8-7.6-1-10.8c-3.5-63.6,7.1-91.1,84.3-86.2c25.1,1.6,50.3-0.1,75.5,0.4
			c31.3,0.5,50.3,17.9,52.6,48.7c1.1,15.2,0.2,30.6,0.2,47.9C846.3,897.2,777,897.2,705.5,897.2z"/>
		<path d="M663.6,919.8c-117.5,52.6-234.5,53.2-354.5,4.5c14.3-22.2,26.7-32.3,55.1-22.9c80.7,26.7,163,26.1,243.3-2.7
			C633,889.4,650.3,890.1,663.6,919.8z"/>
		<path d="M213.3,723.3c-0.1,31-24.4,55.8-55.1,56.3c-31.1,0.5-57.8-25.8-57.7-56.8c0.2-31.1,27.2-57.2,58.2-56.4
			C189.4,667.3,213.4,692.3,213.3,723.3z"/>
		<path d="M485.8,110c-30.7-0.6-55.3-26.4-54.3-56.9c1-29.8,25.4-53.2,55.4-53.1c30.7,0.1,56.2,25.5,55.9,55.6
			C542.4,86,516.6,110.6,485.8,110z"/>
		<path d="M866.7,722c0.5,31.5-23.3,55.9-54.6,56c-30.5,0.2-54.4-22.6-55.4-52.8c-1-31.6,22.1-56.5,53.4-57.2
			C841.6,667.2,866.2,690.7,866.7,722z"/>
	</g>
</g>
</svg>
