<svg xmlns="http://www.w3.org/2000/svg" width="79.758" height="715.638" viewBox="0 0 79.758 715.638">
  <g id="Group_12" data-name="Group 12" transform="translate(-269.448 -273.152)">
    <path id="Path_696" data-name="Path 696" d="M311.912,946.49q-.008-270.884-.011-541.77c0-4.078-.12-8.35.23-12.185.422-4.626,1.56-7.913,3.321-7.858,1.735.052,2.92,3.134,3.331,7.851.335,3.856.219,8.112.219,12.191q0,270.884-.01,541.77Z" transform="translate(16.094 42.3)" fill="#fff"/>
    <path id="Path_697" data-name="Path 697" d="M279.647,946.495q-.01-270.876-.011-541.752c0-4.079-.119-8.338.219-12.189.412-4.7,1.605-7.909,3.327-7.888s2.92,3.181,3.334,7.889c.339,3.85.221,8.11.221,12.187q0,270.876-.01,541.752Z" transform="translate(3.856 42.295)" fill="#fff"/>
    <path id="Path_698" data-name="Path 698" d="M295.779,940.119q-.008-257.817-.008-515.635c0-4.677-.124-9.572.221-13.974.419-5.345,1.6-9.069,3.328-9.036s2.917,3.67,3.336,9.03c.343,4.4.208,9.3.208,13.979q.006,257.817-.006,515.635Z" transform="translate(9.976 48.671)" fill="#fff"/>
    <path id="Path_699" data-name="Path 699" d="M306.478,273.152c6.4,10.008,12.313,19.515,17.029,29.725,6.517,14.1,11.983,28.533,11.328,44.4-.56,13.529-2.747,26.715-10.365,38.409-2.005,3.079-4.4,4.629-8.3,4.414A170.325,170.325,0,0,0,297,390c-4.748.272-7.394-1.847-9.633-5.626-5.6-9.462-7.994-19.815-9.211-30.59-2.291-20.3,4.666-38.352,13.542-55.89A202.557,202.557,0,0,1,306.478,273.152Zm-.05,40.323c-7.265.018-12.323,4.834-12.323,11.735a12.449,12.449,0,0,0,12.681,12.811,12.2,12.2,0,0,0,11.859-12.509A11.908,11.908,0,0,0,306.428,313.475Z" transform="translate(3.135)" fill="#fff"/>
    <path id="Path_700" data-name="Path 700" d="M300.58,396.655c-5.477-8.211-9.717-16.437-8.2-26.452,1.081-7.139,3.542-9.281,9.7-9.194,2.841.039,4.236,1.3,5.3,3.647,3.8,8.365,2,16.369-1.717,24.122C304.39,391.433,303.379,394.393,300.58,396.655Z" transform="translate(8.58 33.321)" fill="#fff"/>
    <path id="Path_701" data-name="Path 701" d="M274.176,376.317c-7.423-11.746-6-22.1,3.531-27.757,2.636-1.564,3.345-1.553,5.258,1.706,4.457,7.592,4.7,13.317-3.375,18.219-1.32.8-2.027,2.636-2.972,4.023C275.79,373.724,275.027,374.983,274.176,376.317Z" transform="translate(0 28.216)" fill="#fff"/>
    <path id="Path_702" data-name="Path 702" d="M327.5,377.116c-3.29-6.283-6.648-11.514-12.27-14.72-1.648-.939-.637-2.046-.23-3,1.047-2.469,2.3-4.849,3.342-7.323,2.185-5.194,3.9-5.53,8.3-1.509,6.261,5.721,7.288,14.26,2.77,23.139C328.95,374.593,328.429,375.452,327.5,377.116Z" transform="translate(17.018 28.322)" fill="#fff"/>
  </g>
</svg>
