<?xml version="1.0" encoding="utf-8"?>
<!-- Generator: Adobe Illustrator 19.1.0, SVG Export Plug-In . SVG Version: 6.00 Build 0)  -->
<svg version="1.0" id="Layer_1" xmlns="http://www.w3.org/2000/svg" xmlns:xlink="http://www.w3.org/1999/xlink" x="0px" y="0px"
	 viewBox="0 0 612 1080" style="enable-background:new 0 0 612 1080;" xml:space="preserve">
<style type="text/css">
	.st0{fill:#FFFFFF;}
</style>
<g>
	<g>
		<path id="Path_696" class="st0" d="M324.7,733.7c0-180.6,0-361.2,0-541.8c0-4.1-0.1-8.4,0.2-12.2c0.4-4.6,1.6-7.9,3.3-7.9
			c1.7,0.1,2.9,3.1,3.3,7.9c0.3,3.9,0.2,8.1,0.2,12.2c0,180.6,0,361.2,0,541.8L324.7,733.7z"/>
		<path id="Path_697" class="st0" d="M280.2,733.7c0-180.6,0-361.2,0-541.8c0-4.1-0.1-8.3,0.2-12.2c0.4-4.7,1.6-7.9,3.3-7.9
			s2.9,3.2,3.3,7.9c0.3,3.9,0.2,8.1,0.2,12.2c0,180.6,0,361.2,0,541.8L280.2,733.7z"/>
		<path id="Path_698" class="st0" d="M302.4,733.7c0-171.9,0-343.8,0-515.6c0-4.7-0.1-9.6,0.2-14c0.4-5.3,1.6-9.1,3.3-9
			s2.9,3.7,3.3,9c0.3,4.4,0.2,9.3,0.2,14c0,171.9,0,343.8,0,515.6L302.4,733.7z"/>
	</g>
	<g>
		<path id="Path_696_1_" class="st0" d="M324.7,1085.2c0-180.6,0-361.2,0-541.8c0-4.1-0.1-8.3,0.2-12.2c0.4-4.6,1.6-7.9,3.3-7.9
			c1.7,0.1,2.9,3.1,3.3,7.9c0.3,3.9,0.2,8.1,0.2,12.2c0,180.6,0,361.2,0,541.8L324.7,1085.2z"/>
		<path id="Path_697_1_" class="st0" d="M280.2,1085.2c0-180.6,0-361.2,0-541.8c0-4.1-0.1-8.3,0.2-12.2c0.4-4.7,1.6-7.9,3.3-7.9
			s2.9,3.2,3.3,7.9c0.3,3.9,0.2,8.1,0.2,12.2c0,180.6,0,361.2,0,541.8L280.2,1085.2z"/>
		<path id="Path_698_1_" class="st0" d="M302.4,1085.2c0-171.9,0-343.8,0-515.6c0-4.7-0.1-9.6,0.2-14c0.4-5.3,1.6-9.1,3.3-9
			c1.7,0,2.9,3.7,3.3,9c0.3,4.4,0.2,9.3,0.2,14c0,171.9,0,343.8,0,515.6L302.4,1085.2z"/>
	</g>
	<path id="Path_699" class="st0" d="M306.3,18.1c6.4,10,12.3,19.5,17,29.7c6.5,14.1,12,28.5,11.3,44.4c-0.6,13.5-2.7,26.7-10.4,38.4
		c-2,3.1-4.4,4.6-8.3,4.4c-6.4-0.4-12.8-0.4-19.2-0.1c-4.7,0.3-7.4-1.8-9.6-5.6c-5.6-9.5-8-19.8-9.2-30.6
		c-2.3-20.3,4.7-38.4,13.5-55.9C295.8,34.2,300.8,25.9,306.3,18.1z M306.2,58.4c-7.3,0-12.3,4.8-12.3,11.7
		c-0.2,6.9,5.2,12.6,12.1,12.8c0.2,0,0.4,0,0.6,0c6.7-0.2,12-5.8,11.9-12.5c0.1-6.6-5.2-12-11.8-12
		C306.5,58.4,306.4,58.4,306.2,58.4z"/>
	<path id="Path_700" class="st0" d="M305.8,174.9c-5.5-8.2-9.7-16.4-8.2-26.5c1.1-7.1,3.5-9.3,9.7-9.2c2.8,0,4.2,1.3,5.3,3.6
		c3.8,8.4,2,16.4-1.7,24.1C309.6,169.7,308.6,172.6,305.8,174.9z"/>
	<path id="Path_701" class="st0" d="M270.8,149.4c-7.4-11.7-6-22.1,3.5-27.8c2.6-1.6,3.3-1.6,5.3,1.7c4.5,7.6,4.7,13.3-3.4,18.2
		c-1.3,0.8-2,2.6-3,4C272.5,146.9,271.7,148.1,270.8,149.4z"/>
	<path id="Path_702" class="st0" d="M341.2,150.3c-3.3-6.3-6.6-11.5-12.3-14.7c-1.6-0.9-0.6-2-0.2-3c1-2.5,2.3-4.8,3.3-7.3
		c2.2-5.2,3.9-5.5,8.3-1.5c6.3,5.7,7.3,14.3,2.8,23.1C342.6,147.8,342.1,148.7,341.2,150.3z"/>
</g>
</svg>
