<?xml version="1.0" encoding="utf-8"?>
<!-- Generator: Adobe Illustrator 19.1.0, SVG Export Plug-In . SVG Version: 6.00 Build 0)  -->
<svg version="1.1" xmlns="http://www.w3.org/2000/svg" xmlns:xlink="http://www.w3.org/1999/xlink" x="0px" y="0px"
	 viewBox="0 0 1024 1024" style="enable-background:new 0 0 1024 1024;" xml:space="preserve">
<style type="text/css">
	.st0{display:none;}
	.st1{display:inline;}
	.st2{fill:#28A745;}
	.st3{fill:#27A74A;}
</style>
<g id="Layer_1" class="st0">
	<g class="st1">
		<path class="st2" d="M652.4,1024c-67.4-0.2-118.4-16.4-165-44.3c-236.9-142-376.5-353.1-435.7-620C39.5,304.6,33.2,248,46.9,192.4
			C70.9,94.5,132.4,30.2,230,3.2c36.8-10.2,73.1,4.3,86.2,40c22.5,61.3,40.6,124.5,56.2,188c7.3,29.5-10.5,54-37.6,67.7
			c-27.7,14-56.2,26.7-85.1,38c-21.8,8.5-26.6,21.8-19,42.7c55,152.3,140.4,284.8,257,397.2c17.2,16.6,29.7,13.9,45.3-3.4
			c20.2-22.3,41.8-43.9,65.8-61.8c27.2-20.4,58.9-22.8,86.9-1c44.2,34.5,89.5,68.4,129.3,107.5c47.3,46.5,44.1,91.1-3.3,137.4
			C763.9,1001.9,706,1023.1,652.4,1024z"/>
		<path class="st2" d="M984.8,475.5c-3.9,29.9-6.2,60.1-12,89.6c-6.2,31-28.7,44.5-56.9,37.9c-24.5-5.8-37.3-28.9-31.8-59.3
			c15.7-86.5,3.8-168.9-38.6-245.9C793.3,203,714.7,140.9,609.4,113.6c-8.3-2.2-17.2-3.4-24.8-7.2c-20.8-10.3-31.2-27.2-26.5-50.7
			c4.8-24.1,24.6-41.2,49.1-35.1C648,30.7,689.5,42,726.9,60.5C884.5,138.2,982.4,299.8,984.8,475.5z"/>
		<path class="st2" d="M829.6,498.9c-1.5,11.2-3,32.8-7.4,53.9c-5.8,27.8-27.4,43-52,39c-26-4.3-40.1-26.2-38.1-55.8
			c1.9-27.4,6.2-55.7,1.7-82.3c-17.7-103.7-79-169.9-180.2-198.7c-33-9.4-49.9-30.3-43.9-56.3c6.5-28,31-40.4,65.2-32.9
			C720.1,197.5,829.9,336.7,829.6,498.9z"/>
		<path class="st2" d="M581.8,514.3c3.5-57.5-24.4-97.6-79.8-114.7c-31.9-9.9-46.8-32.3-39.3-59.4c7.3-26.3,32.3-37.4,65.1-29.1
			c96.6,24.7,161,124,143.9,221.7c-5.8,33-23.1,48.2-51.5,45.3c-27.7-2.9-41.2-22.3-39-56.1C581.3,519.5,581.6,516.9,581.8,514.3z"
			/>
	</g>
</g>
<g id="Layer_2" class="st0">
	<g class="st1">
		<path class="st2" d="M37.4,152.9c13.7-8.7,26.7-10.3,40.2-10.3c121.8,0,243.6,0,365.5,0c166.4,0,332.8,0,499.2,0
			c15.8,0,31.1,1.6,46.4,11c-2.7,3-5.3,5.7-7.8,8.2C839.6,295.5,698.1,429.2,556.6,562.9c-26.7,25.4-60.6,25.6-86.9,0.7
			c-141-134.9-282.3-269.5-423.5-403.9C44,157.5,41,155.6,37.4,152.9z"/>
		<path class="st2" d="M35.1,862.8c112.2-106.1,223.1-210.7,334.8-316.3c14.2,13.3,27.9,26.3,41.6,39.3
			c16.7,15.8,32.9,31.5,49.6,47.3c31.1,29,72.7,29,103.8-0.2c29.5-27.7,58.5-55.5,88.9-84.6c110.4,105.1,220.6,210,331.9,316.1
			c-12.1,7.5-24.5,9.6-37.3,9.6c-79.5,0-159.3,0-238.8,0c-210.3,0-420.6,0-630.8,0C64.1,874,49.7,872,35.1,862.8z"/>
		<path class="st2" d="M2.4,196.6c109.3,104,217.4,207.1,326.6,310.8C220.4,611.6,110.7,714,2.4,819.4c-0.7-6.6-2.3-14.9-2.3-23.1
			c-0.2-140.6,0-280.9,0-421.5c0-51.9-0.2-103.5,0-155.4C0.1,211.4,1.7,203.2,2.4,196.6z"/>
		<path class="st2" d="M1023.8,195.4c0.2,209.1,0.2,417.4,0,626.7C912.7,716.3,804.4,613,695.2,509
			C804,405,913.7,302.4,1023.8,195.4z"/>
	</g>
</g>
<g id="Layer_3">
	<g>
		<path class="st3" d="M509.9,932.9c-36.5-46.2-71.2-88.9-104.7-132.3c-76.7-99.5-151.7-199.8-207.3-313.7
			C102.8,292,214,94,373.4,27.5c181.9-76,389.9,11.2,461.4,193.8c35.2,90.3,27.8,178.5-13.4,265.6
			C762.6,611.7,677.9,719,593.8,826.7C566.5,861.4,539.2,895.9,509.9,932.9z M508.9,481.2c67.3,0.2,122.4-53.9,121.9-119.9
			c-0.2-62.5-54.9-116.7-118.4-117.6c-67.3-1.2-122.6,52.6-122.4,118.9C390.3,428.6,442.6,480.9,508.9,481.2z"/>
		<path class="st3" d="M493.8,1024c-47.2-9.9-109.5-20.1-169.5-37.2c-35-9.9-73.5-28-73-73.5c0.5-43.4,37.7-58.3,71-72.5
			c71.7-30.5,72-30,119.6,31c15.4,19.9,30.8,39.7,45.9,59.6c14.6,19.4,29.3,18.9,43.9,0.2c25.3-32.5,49.6-65.8,76.4-97
			c6.5-7.7,22.6-13.7,31.8-11.2c29.8,8.2,60.1,17.4,86.9,32.3c57.8,32,58.3,82.9,1,115.4c-27.6,15.6-58.6,27.3-89.6,33.8
			C596.3,1014.1,553.1,1016.6,493.8,1024z"/>
	</g>
</g>
</svg>
