<?xml version="1.0" encoding="utf-8"?>
<!-- Generator: Adobe Illustrator 19.1.0, SVG Export Plug-In . SVG Version: 6.00 Build 0)  -->
<svg version="1.1" id="Layer_1" xmlns="http://www.w3.org/2000/svg" xmlns:xlink="http://www.w3.org/1999/xlink" x="0px" y="0px"
	 viewBox="0 0 960 960" style="enable-background:new 0 0 960 960;" xml:space="preserve">
<g>
	<path d="M70.4,752.6c-13.6-13.8-14.5-29.9-14.3-46.7c-2.7,13.7-5.4,27.3-8,41c-1.1,0-2.2,0-3.4,0c-0.9-6.9-3.2-13.8-2.5-20.5
		c1.6-17,5-33.5,15.9-47.8c3.7-4.9,5.1-12.7,5.2-19.2c0.6-26.3-0.4-52.6,0.5-78.8c0.4-10.6,3.8-21.1,6.2-31.5
		c0.7-3.3,2.4-6.4,3.6-9.6c9.1-24,9.2-24.1-9.4-41c-15.1-13.7-22.1-30.8-22.3-50.9c0-6.4-1.7-10.5-7.3-15.2
		c-5-4.2-5.9-13.3-9.4-22.2c-6.5-1.7-15.6-4.1-25.2-6.7c4.9-9.5,11-13,21.2-10.5c14.3,3.5,18.8,1.9,26-11.2
		c12.8-23.5,29.6-43.9,46.2-64.6c3-3.8,3.3-9.8,5.1-14.7c1.1-3,1.9-6.5,4-8.7c4.2-4.4,8.9-8.5,14-11.9c13.2-8.8,21.3-20.9,24.7-36.3
		c2.9-13.4,9.8-21.8,24.4-23.6c4.4-0.5,9.1-4.4,12.3-7.9c15-16.3,29.4-33.2,44.4-49.5c23.5-25.6,51.4-28.9,80.8-10.3
		c3.7,2.4,7.5,4.7,12.5,7.9c2.9-5.8,5.6-11.5,8.6-17c5.3-10,8.9-10.4,14.4-0.8c5.4,9.4,13.3,11.7,24.8,10.8
		c-1.4-9.2-3.1-17.8-3.8-26.5c-0.7-9-1.4-18.2-0.2-27.1c3.9-27.5,22.1-45.9,41.9-63.1c1.2-1,2.9-1.5,4.5-1.8
		c14-2.5,28.2-4.5,42.1-7.3c7.5-1.5,13-0.3,18.1,5.7c9.2,10.6,19.4,20.2,28.4,30.9c8.2,9.8,18.3,14.7,30.8,16
		c10.1,1,20.1,2.9,30.3,4.4c-7.1,17.1-15.2,22.3-50.9,32.7c6,7.7,11.7,15.2,17.7,22.4c5.5,6.7,6.4,12.7,0.3,20
		c-3.3,3.9-5.4,9.6-6.1,14.8c-2,13.4-3.2,27-4.1,40.5c-0.6,8.6-6.2,11.3-13.2,13.1c-21.6,5.6-38.6,17.8-52.2,36.3
		c4,3.8,7.9,7,11.3,10.8c5.3,5.8,9.3,11.7,8.1,20.9c-0.8,5.8,2.4,12.7,5.4,18.1c4.1,7.4,5,12.9-2.9,18.2c-7.4,4.9-7.4,11.8-2.5,18.6
		c7.3,10.3,14.4,20.8,22.6,30.3c2.1,2.5,9.7,4.1,11.6,2.4c34-28.6,67.5-57.8,87.4-98.8c9.2-19,13.3-39.4,14-60.3
		c0.6-16.3,4.3-30.5,17.7-41.8c7.1-6,11.9-14.8,17.6-22.4c5.3-7.1,11.7-9.8,20.5-6.5c6.7,2.5,13.8,3.8,20.5,6.3
		c8.8,3.3,9.2,6.3,3.9,14.3c-1.8,2.7-3.7,7.7-2.4,9.5c1.6,2.3,6.7,4,9.7,3.4c39.8-8.8,78.6,4.3,117.9,4.6c4.6,0,9.4-0.3,13.8-1.7
		c15.2-5.1,30,0,45-0.7c0.2,1.2,0.3,2.3,0.5,3.5c-8.1,2.8-16.1,5.5-25.4,8.7c6.2,5.4,11.9,10,17.2,15.2c9.3,9.1,8.5,17.9-2,25.6
		c-3,2.2-6.7,3.6-9.4,6.1c-3,2.9-7,6.5-7.2,9.9c-0.1,2.5,5,5.6,8.2,7.8c4.5,3.1,9.4,5.7,14.1,8.4c-0.3,1.1-0.7,2.3-1,3.4
		c-3.7-0.3-7.5-0.2-11.1-0.8c-40.2-7.3-80.4-14.6-120.6-22.2c-7.7-1.4-12.5-0.1-13.9,8.6c-1.3,7.7-2.1,14.5,8.5,15.7
		c3.7,0.4,7.1,2.4,10.8,3.1c10.2,2,12.2,9.9,10.8,17.9c-0.7,4.2-6,7.6-10.4,12.8c11.8,15.9,4.3,36.3,2.7,56.2
		c-1.7,20.7-5.1,41.2-6.1,61.9c-1.5,28.9-1.6,58-1.9,87c-0.1,7.8,1,15.5,1.5,23.1c22.9,3.7,23.1,3.6,36.2,23.7
		c15.1,23.1,29.6,46.7,44.8,69.7c6.9,10.5,14.9,20.2,22.4,30.3c1,1.4,2.4,2.5,3.1,4c30.9,61.5,76.7,112.5,117,167.4
		c0.4,0.5,0.8,1.1,1.2,1.6c4.3,5.8,6.2,12.3-0.2,17.2c-7.3,5.6-10.8-1.3-14.3-6.2c-55.8-77.9-111.6-155.8-167.4-233.7
		c-2.3-3.2-4.8-6.3-7.9-10.4c-3.8,5.6-6.5,10.7-10.2,14.9c-7.3,8.3-14.7,16.6-23,24c-6.2,5.6-9.6,11.3-10,20c-3,65-6.5,130-9.9,195
		c-0.3,6.3-2.3,12.3-9.9,11.4c-7.9-0.9-8.6-7.7-8.1-14.2c2.5-33.7,6.1-67.3,7.3-101c1.4-37.1,0.6-74.3,0.9-111.4
		c0-5.8-1.2-10.8-7.9-10.8c-7.5,0-16.9-8.4-21.9,4.4c-2.9,7.3-6.5,14.3-8.8,21.8c-17.4,55.7-52.4,103.1-73.6,157
		c-6.1,15.5-13.4,30.6-20.2,45.9c-2.3,5.1-4.8,11.1-11.8,7.6c-6.5-3.3-5.7-9.4-3-15.1c12.1-24.8,24.3-49.6,36.3-74.5
		c13.3-27.6,26.6-55,35.5-84.7c6.6-21.9,19.3-42,29.2-63c5.9-12.6,5.2-14.3-7.8-19.7c-12.3-5-24.3-11.1-36.9-14.9
		c-41.1-12.3-72-39.1-100.5-69.5c-6.5-6.9-12.9-13.9-19.4-20.9c-0.8,0.6-1.6,1.1-2.3,1.7c1.6,9.5,3.2,19,4.8,28.5
		c1.1,6.6-1,11.1-8.2,10.9c-6.1-0.2-8.1,3.2-9.8,8.2c-17.7,51.2-36.9,101.9-52.7,153.7c-5.3,17.2-2.3,37-3,55.6c0,1,0.1,2.6,0.7,2.9
		c14,6.9,18.9,25.9,36.9,27.8c15.6,1.7,29.9,6.8,41,18.6c12,12.7,15.9,31.4,8.4,45.3c-2.4,4.3-8.3,9.6-12.6,9.6
		c-48.4-0.2-96.8-1.3-145.2-2.3c-2.4,0-4.7-1.1-7-1.2c-10.6-0.5-14.9-6.8-15.7-16.6c-0.2-2-0.6-4-1.2-7.6
		c-13.3,3.2-26.6,4.9-38.7,9.7c-19,7.5-38.5,8.9-58.3,8.3c-32.4-0.9-64.7-3.3-97-4.2c-8.4-0.2-16.9,2.7-25.4,4.3
		c-1.3,0.2-2.6,1.4-3.7,1.1c-23.8-6.8-49.9-4.1-72.2-16.8c-3.5-2-7.1-5.7-8.3-9.4c-4-12.3-7.5-24.8-10.3-37.4
		C10,787.2,14,779.7,26,773.7C40,766.8,54.2,760.3,70.4,752.6z M691.4,247.9c-1.3,0.1-2.7,0.2-4,0.3c0.3,14.4-8.6,22.9-18.1,31.7
		c-6.1,5.6-14.3,12.9-14.8,19.9c-2,30.3-10,60.5-2.8,91.2c1.5,6.5,1.5,13.5,1.1,20.3c-2.4,40.4-4.3,80.9-8.1,121.2
		c-1.8,19.1,7.3,29.3,21.7,37.7c9.8,5.7,13.6,4.4,17.7-6.4c3.4-9,8.3-16.6,18.1-19.3c8.3-2.3,11.4-8,11.5-15.9
		c1-54.8,6.8-109.6-0.6-164.4c-0.9-6.8-2.1-11.3-10.5-11.6c-2.7-0.1-7.3-5.2-7.3-8.1c-0.1-4.8,2.8-13.6,4.5-13.7
		c14.2-0.3,15.8-11.8,22.8-23.5c-9.3,0.5-16,1.1-22.8,1.2c-2.8,0-7.4-0.3-8.1-1.8c-1.4-3.2-1.5-7.5-0.5-10.8
		c0.5-1.6,4.8-2.8,7.3-2.8c4.2-0.1,8.4,0.9,12.6,1.5c0.4-1.2,0.8-2.3,1.2-3.5c-5.9-2-11.7-4.1-15.2-5.3
		C694.9,271.9,693.1,259.9,691.4,247.9z M547.2,451.4c22,23,42.7,44.7,65.4,68.4c3.7-24.7,7.4-46.2,10.2-67.8
		c3.9-29.9,1.4-60.8,16-88.8c1.6-3.2,1.6-7.3,1.8-11c1.3-17.5,2.3-35,3.5-52.6c-1.1-0.6-2.2-1.3-3.2-1.9c-3.4,2-7.9,3.3-10,6.2
		c-4.6,6.2-9.2,12.9-11.9,20.1C601.5,369.7,583.4,415,547.2,451.4z M78.8,677.4c-0.4,2.8-0.7,3.5-0.5,4.1c7.2,16.1,11.2,32-2.6,47.1
		c-1.5,1.6-1.5,5.2-1.2,7.8c1.6,13.5,20.3,22.2,31.4,13.6c13.8-10.7,26.5-9.7,40.4-1.1c9.6,5.9,11.3,5.3,19.8-4.2
		C127.6,735.1,101.9,709,78.8,677.4z M470.4,511.2c1.1-0.6,2.2-1.3,3.3-1.9c-3.1-8.4-4-18.8-9.7-24.7c-15.5-16.4-33-30.9-50.6-46.9
		c-6.8,17.1-13,32.9-19.8,50C424.1,483.4,451.5,483.5,470.4,511.2z"/>
</g>
</svg>
